<?xml version="1.0" encoding="utf-8"?>
<!-- Generator: Adobe Illustrator 28.4.1, SVG Export Plug-In . SVG Version: 6.00 Build 0)  -->
<svg version="1.1" id="Layer_1" xmlns="http://www.w3.org/2000/svg" xmlns:xlink="http://www.w3.org/1999/xlink" x="0px" y="0px"
	 viewBox="0 0 200 200" style="enable-background:new 0 0 200 200;" xml:space="preserve">
<style type="text/css">
	.st0{fill:#002636;}
</style>
<path class="st0" d="M143.4,38.5c12.2,10.6,21,24.2,28.1,39.7c7.1,15.6,12.5,33.2,8.2,48.1c-4.2,14.9-18.1,27.1-33,36
	c-14.9,8.9-30.8,14.6-46.2,13.8c-15.3-0.7-30.1-7.8-44.8-16.8c-14.6-9-29.1-19.9-37.4-35.2C9.9,108.8,7.7,89,13.9,72.7
	c6.2-16.3,21-29.2,36.7-38.7c15.8-9.4,32.6-15.4,48.8-14.6C115.6,20.3,131.2,27.9,143.4,38.5z"/>
</svg>
