<?xml version="1.0" encoding="utf-8"?>
<!-- Generator: Adobe Illustrator 28.4.1, SVG Export Plug-In . SVG Version: 6.00 Build 0)  -->
<svg version="1.1" id="Layer_1" xmlns="http://www.w3.org/2000/svg" xmlns:xlink="http://www.w3.org/1999/xlink" x="0px" y="0px"
	 viewBox="0 0 200 200" style="enable-background:new 0 0 200 200;" xml:space="preserve">
<style type="text/css">
	.st0{fill:#002636;}
</style>
<path class="st0" d="M148.9,33.3c14.3,9.8,25.8,24.3,31.9,41c6.2,16.7,7,35.6,2.1,53.2c-5,17.5-15.8,33.7-30.6,42.2
	c-14.8,8.4-33.5,9-50,5.9c-16.5-3.1-30.7-10-44.3-18.8s-26.6-19.6-30.7-33c-4.2-13.5,0.4-29.6,7.1-43.6c6.6-14,15.3-25.8,26.5-36.6
	c11.3-10.8,25.2-20.7,40.8-23C117.3,18.2,134.5,23.5,148.9,33.3z"/>
</svg>
