<?xml version="1.0" encoding="utf-8"?>
<!-- Generator: Adobe Illustrator 28.4.1, SVG Export Plug-In . SVG Version: 6.00 Build 0)  -->
<svg version="1.1" id="Layer_1" xmlns="http://www.w3.org/2000/svg" xmlns:xlink="http://www.w3.org/1999/xlink" x="0px" y="0px"
	 viewBox="0 0 200 200" style="enable-background:new 0 0 200 200;" xml:space="preserve">
<style type="text/css">
	.st0{fill:#002636;}
</style>
<path class="st0" d="M147.2,38.3c15,7.6,28.9,20,34.5,35.6c5.6,15.5,2.9,34.1-3.3,51.1c-6.1,17-15.8,32.4-29.5,43.2
	c-13.6,10.8-31.3,17-47.4,15c-16.2-2.1-30.9-12.3-43.8-23.3c-13-11-24.1-22.9-30.8-37.5c-6.7-14.7-9-32.3-5-48.9
	C25.8,57,35.9,41.3,50,33.3c14-8,32-8.3,49-7C116.1,27.6,132.2,30.6,147.2,38.3z"/>
</svg>
