<?xml version="1.0" encoding="utf-8"?>
<!-- Generator: Adobe Illustrator 28.4.1, SVG Export Plug-In . SVG Version: 6.00 Build 0)  -->
<svg version="1.1" id="Layer_1" xmlns="http://www.w3.org/2000/svg" xmlns:xlink="http://www.w3.org/1999/xlink" x="0px" y="0px"
	 viewBox="0 0 200 200" style="enable-background:new 0 0 200 200;" xml:space="preserve">
<style type="text/css">
	.st0{fill:#002636;}
</style>
<path class="st0" d="M143,42.7c12.3,7.1,21.4,20.2,28.5,35.6c7,15.3,11.9,32.8,6.2,45.8c-5.8,13.1-22.1,21.5-36.8,32.8
	c-14.7,11.2-27.8,25.3-42.2,27c-14.3,1.7-29.9-8.8-43.1-20.6c-13.2-11.7-23.9-24.7-29.7-39.8c-5.8-15.2-6.6-32.6-1.8-48.4
	c4.8-15.8,15.3-30,28.9-36.6s30.3-5.6,46.3-4.7C115.4,34.8,130.7,35.7,143,42.7z"/>
</svg>
