<svg xmlns="http://www.w3.org/2000/svg" xmlns:xlink="http://www.w3.org/1999/xlink" width="398" height="123.537" viewBox="0 0 398 123.537">
  <defs>
    <linearGradient id="linear-gradient" x1="0.5" y1="-28.265" x2="0.5" y2="-28.792" gradientUnits="objectBoundingBox">
      <stop offset="0.26" stop-color="#fff"/>
      <stop offset="1" stop-color="#8a4814"/>
    </linearGradient>
    <linearGradient id="linear-gradient-2" x1="0.5" y1="0.365" x2="0.5" y2="-0.161" gradientUnits="objectBoundingBox">
      <stop offset="0.26" stop-color="#fff"/>
      <stop offset="1" stop-color="#e9483b"/>
    </linearGradient>
    <linearGradient id="linear-gradient-3" x1="0.5" y1="0.364" x2="0.5" y2="-0.161" xlink:href="#linear-gradient-2"/>
  </defs>
  <g id="logo_negativo" data-name="logo negativo" style="isolation: isolate">
    <g id="Capa_2" data-name="Capa 2">
      <g id="Capa_1" data-name="Capa 1">
        <rect id="Rectángulo_64" data-name="Rectángulo 64" width="46.356" height="46.356" transform="translate(287.239 32.583)" fill="#e9483b"/>
        <rect id="Rectángulo_65" data-name="Rectángulo 65" width="46.356" height="46.356" transform="translate(287.239 32.583)" fill="url(#linear-gradient)" style="mix-blend-mode: multiply;isolation: isolate"/>
        <rect id="Rectángulo_66" data-name="Rectángulo 66" width="46.356" height="46.356" transform="translate(17.603 32.583)" fill="#fab431"/>
        <rect id="Rectángulo_67" data-name="Rectángulo 67" width="46.356" height="46.356" transform="translate(17.603 32.635)" fill="url(#linear-gradient-2)" style="mix-blend-mode: multiply;isolation: isolate"/>
        <g id="Grupo_43" data-name="Grupo 43" transform="translate(353.717)">
          <path id="Trazado_96" data-name="Trazado 96" d="M149.761,0a2.172,2.172,0,0,1,2.177,2.177V8.421a2.189,2.189,0,0,1-2.177,2.177h-6.244a2.172,2.172,0,0,1-2.177-2.177V2.2A2.172,2.172,0,0,1,143.517.026h6.244Zm-6.139,8.342h6.008V2.309h-6.008V8.316Z" transform="translate(-124.262)" fill="#90cde7"/>
          <path id="Trazado_97" data-name="Trazado 97" d="M158.626,1.233l-3.2,4.066,3.2,4.119v1.233h-3.909l-1.705-2.282c-.5.761-1.207,1.548-1.705,2.282H147.45V9.418L150.624,5.3,147.45,1.233V0h3.883l1.679,2.309L154.717,0h3.909Z" transform="translate(-114.342)" fill="#90cde7"/>
          <path id="Trazado_98" data-name="Trazado 98" d="M146.452,5.618H134.83V3.1h11.622Z" transform="translate(-134.83 5.033)" fill="#90cde7"/>
        </g>
        <rect id="Rectángulo_68" data-name="Rectángulo 68" width="31.848" height="64.064" transform="translate(145.915 64.405) rotate(-90)" fill="#f1862a"/>
        <g id="Grupo_44" data-name="Grupo 44" transform="translate(0.682 112.519)">
          <path id="Trazado_99" data-name="Trazado 99" d="M.26,52.308l.813-.918A4.185,4.185,0,0,0,4.011,52.7c1.39,0,2.23-.682,2.23-1.731,0-1.076-.761-1.417-1.758-1.863l-1.522-.682A2.987,2.987,0,0,1,.811,45.7,3.058,3.058,0,0,1,4.143,42.89,4.388,4.388,0,0,1,7.265,44.2l-.708.866a3.432,3.432,0,0,0-2.414-1c-1.181,0-1.968.6-1.968,1.548,0,1.023.918,1.417,1.758,1.758l1.522.656a2.935,2.935,0,0,1,2.177,2.833c0,1.679-1.39,3.017-3.62,3.017A5.123,5.123,0,0,1,.286,52.308Z" transform="translate(-0.26 -42.89)" fill="#f0f6f6"/>
          <path id="Trazado_100" data-name="Trazado 100" d="M7.54,42.96h6.113v1.154H8.878v3.332h4.014V48.6H8.878v3.856H13.81v1.154H7.54V42.986Z" transform="translate(11.559 -42.776)" fill="#f0f6f6"/>
          <path id="Trazado_101" data-name="Trazado 101" d="M14.49,42.96h3.332c2.151,0,3.725.787,3.725,2.991S20,49.1,17.822,49.1H15.854v4.486H14.49ZM17.638,48c1.653,0,2.571-.656,2.571-2.046s-.918-1.889-2.571-1.889H15.854V48h1.784Zm-.079.735,1.049-.708,3.227,5.562H20.314l-2.755-4.853Z" transform="translate(22.841 -42.776)" fill="#f0f6f6"/>
          <path id="Trazado_102" data-name="Trazado 102" d="M21.47,48.4c0-3.41,2.046-5.509,4.88-5.509A4.107,4.107,0,0,1,29.419,44.2l-.735.892a3.01,3.01,0,0,0-2.282-1c-2.125,0-3.515,1.653-3.515,4.276S24.146,52.7,26.4,52.7a2.9,2.9,0,0,0,1.915-.63V49.317H26.061V48.189H29.55v4.46a4.53,4.53,0,0,1-3.279,1.233c-2.807,0-4.8-2.046-4.8-5.483Z" transform="translate(34.173 -42.89)" fill="#f0f6f6"/>
          <path id="Trazado_103" data-name="Trazado 103" d="M29.21,42.96h1.338V53.585H29.21Z" transform="translate(46.738 -42.776)" fill="#f0f6f6"/>
          <path id="Trazado_104" data-name="Trazado 104" d="M34.29,48.347c0-3.41,1.863-5.457,4.539-5.457s4.539,2.073,4.539,5.457-1.863,5.535-4.539,5.535S34.29,51.731,34.29,48.347Zm7.687,0c0-2.65-1.259-4.276-3.148-4.276S35.68,45.7,35.68,48.347,36.94,52.7,38.829,52.7,41.977,51,41.977,48.347Z" transform="translate(54.985 -42.89)" fill="#f0f6f6"/>
          <path id="Trazado_105" data-name="Trazado 105" d="M47.25,42.976h3.043c2.387,0,3.988.813,3.988,3.122s-1.6,3.279-3.909,3.279H48.614v4.2H47.276V42.95Zm2.938,5.3c1.863,0,2.755-.682,2.755-2.177s-.944-2.02-2.807-2.02H48.614V48.3h1.574Z" transform="translate(76.025 -42.793)" fill="#f0f6f6"/>
          <path id="Trazado_106" data-name="Trazado 106" d="M57.178,42.96H58.7l3.594,10.625H60.877l-1.863-5.929c-.394-1.181-.708-2.361-1.076-3.568h-.052c-.315,1.233-.656,2.387-1.049,3.568l-1.863,5.929H53.61L57.2,42.96Zm-1.705,6.3h4.88v1.076h-4.88Z" transform="translate(86.35 -42.776)" fill="#f0f6f6"/>
          <path id="Trazado_107" data-name="Trazado 107" d="M60.9,52.308l.813-.918A4.185,4.185,0,0,0,64.652,52.7c1.39,0,2.23-.682,2.23-1.731,0-1.076-.761-1.417-1.784-1.863l-1.522-.682A2.987,2.987,0,0,1,61.425,45.7a3.058,3.058,0,0,1,3.332-2.807A4.388,4.388,0,0,1,67.878,44.2l-.708.866a3.432,3.432,0,0,0-2.414-1c-1.181,0-1.968.6-1.968,1.548,0,1.023.918,1.417,1.758,1.758l1.522.656a2.935,2.935,0,0,1,2.177,2.833c0,1.679-1.39,3.017-3.62,3.017A5.123,5.123,0,0,1,60.9,52.308Z" transform="translate(98.185 -42.89)" fill="#f0f6f6"/>
          <path id="Trazado_108" data-name="Trazado 108" d="M70.881,44.114h-3.2V42.96h7.765v1.154h-3.2v9.471H70.907V44.114Z" transform="translate(109.191 -42.776)" fill="#f0f6f6"/>
          <path id="Trazado_109" data-name="Trazado 109" d="M74.68,48.347c0-3.41,1.863-5.457,4.539-5.457s4.539,2.073,4.539,5.457-1.863,5.535-4.539,5.535S74.68,51.731,74.68,48.347Zm7.687,0c0-2.65-1.259-4.276-3.148-4.276S76.07,45.7,76.07,48.347,77.33,52.7,79.219,52.7,82.367,51,82.367,48.347Z" transform="translate(120.555 -42.89)" fill="#f0f6f6"/>
          <path id="Trazado_110" data-name="Trazado 110" d="M82.71,42.96h3.332c2.151,0,3.725.787,3.725,2.991S88.219,49.1,86.042,49.1H84.074v4.486H82.736V42.96ZM85.832,48c1.653,0,2.571-.656,2.571-2.046s-.918-1.889-2.571-1.889H84.048V48Zm-.052.735,1.049-.708,3.227,5.562H88.534Z" transform="translate(133.591 -42.776)" fill="#f0f6f6"/>
          <path id="Trazado_111" data-name="Trazado 111" d="M94.56,52.308l.813-.918A4.185,4.185,0,0,0,98.311,52.7c1.39,0,2.23-.682,2.23-1.731,0-1.076-.761-1.417-1.758-1.863l-1.522-.682A2.987,2.987,0,0,1,95.111,45.7a3.058,3.058,0,0,1,3.332-2.807,4.388,4.388,0,0,1,3.122,1.312l-.708.866a3.432,3.432,0,0,0-2.414-1c-1.181,0-1.968.6-1.968,1.548,0,1.023.918,1.417,1.758,1.758l1.522.656a2.935,2.935,0,0,1,2.177,2.833c0,1.679-1.39,3.017-3.62,3.017a5.123,5.123,0,0,1-3.725-1.574Z" transform="translate(152.829 -42.89)" fill="#f0f6f6"/>
          <path id="Trazado_112" data-name="Trazado 112" d="M101.84,42.96h6.113v1.154h-4.775v3.332h4.014V48.6h-4.014v3.856h4.932v1.154h-6.27V42.986Z" transform="translate(164.648 -42.776)" fill="#f0f6f6"/>
          <path id="Trazado_113" data-name="Trazado 113" d="M108.56,48.4c0-3.41,2.046-5.509,4.88-5.509a4.107,4.107,0,0,1,3.069,1.312l-.735.892a3.01,3.01,0,0,0-2.282-1c-2.151,0-3.515,1.653-3.515,4.276s1.259,4.329,3.515,4.329a2.9,2.9,0,0,0,1.915-.63V49.317h-2.256V48.189h3.489v4.46a4.53,4.53,0,0,1-3.279,1.233c-2.807,0-4.8-2.046-4.8-5.483Z" transform="translate(175.557 -42.89)" fill="#f0f6f6"/>
          <path id="Trazado_114" data-name="Trazado 114" d="M116.28,49.2V42.96h1.338v6.27c0,2.545,1.076,3.358,2.466,3.358s2.518-.813,2.518-3.358V42.96h1.285V49.2c0,3.41-1.653,4.591-3.8,4.591S116.28,52.614,116.28,49.2Z" transform="translate(188.09 -42.776)" fill="#f0f6f6"/>
          <path id="Trazado_115" data-name="Trazado 115" d="M123.97,42.96H127.3c2.151,0,3.725.787,3.725,2.991S129.479,49.1,127.3,49.1h-1.968v4.486H124V42.96ZM127.118,48c1.653,0,2.571-.656,2.571-2.046s-.918-1.889-2.571-1.889h-1.784V48Zm-.079.735,1.049-.708,3.227,5.562h-1.522Z" transform="translate(200.574 -42.776)" fill="#f0f6f6"/>
          <path id="Trazado_116" data-name="Trazado 116" d="M134.214,42.96h1.522l3.594,10.625h-1.443l-1.863-5.929c-.367-1.181-.708-2.361-1.049-3.568H134.9c-.315,1.233-.656,2.387-1.049,3.568l-1.863,5.929H130.62l3.594-10.625Zm-1.705,6.3h4.88v1.076h-4.88Z" transform="translate(211.37 -42.776)" fill="#f0f6f6"/>
        </g>
        <g id="Grupo_45" data-name="Grupo 45" transform="translate(0 14.849)">
          <path id="Trazado_117" data-name="Trazado 117" d="M81.8,30.084H63.959V23.368H17.6V37.692H64.982A16.85,16.85,0,0,1,81.8,54.508V70.642A16.85,16.85,0,0,1,64.982,87.458H16.816A16.783,16.783,0,0,1,0,70.642V63.034H17.6V69.75H63.959V55.426H16.816A16.783,16.783,0,0,1,0,38.61V22.476A16.783,16.783,0,0,1,16.816,5.66H64.982A16.85,16.85,0,0,1,81.8,22.476v7.608Z" transform="translate(0 -5.66)" fill="#f0f6f6"/>
          <path id="Trazado_118" data-name="Trazado 118" d="M117.131,5.71a16.941,16.941,0,0,1,16.921,16.816V43.645a16.941,16.941,0,0,1-16.921,16.816l-47.248.1c.236,0,.341.236.341.682a.58.58,0,0,1-.341-.1V87.377H52.28V5.71h64.877ZM69.883,42.727h46.356V23.287H69.883v19.44Z" transform="translate(84.873 -5.579)" fill="#f0f6f6"/>
          <path id="Trazado_119" data-name="Trazado 119" d="M184.578,30.084H166.739V23.368H120.383V37.692h47.379a16.85,16.85,0,0,1,16.816,16.816V70.642a16.85,16.85,0,0,1-16.816,16.816H119.6A16.783,16.783,0,0,1,102.78,70.642V63.034h17.6V69.75h46.356V55.426H119.6A16.783,16.783,0,0,1,102.78,38.61V22.476A16.783,16.783,0,0,1,119.6,5.66h48.166a16.85,16.85,0,0,1,16.816,16.816v7.608Z" transform="translate(166.856 -5.66)" fill="#f0f6f6"/>
        </g>
        <rect id="Rectángulo_69" data-name="Rectángulo 69" width="46.356" height="19.44" transform="translate(154.756 32.583)" fill="url(#linear-gradient-3)" style="mix-blend-mode: multiply;isolation: isolate"/>
      </g>
    </g>
  </g>
</svg>
