<svg xmlns="http://www.w3.org/2000/svg" xmlns:xlink="http://www.w3.org/1999/xlink" width="396.038" height="122.928" viewBox="0 0 396.038 122.928">
  <defs>
    <linearGradient id="linear-gradient" x1="0.5" y1="-20.862" x2="0.5" y2="-21.388" gradientUnits="objectBoundingBox">
      <stop offset="0.26" stop-color="#fff"/>
      <stop offset="1" stop-color="#8a4814"/>
    </linearGradient>
    <linearGradient id="linear-gradient-2" x1="0.5" y1="0.365" x2="0.5" y2="-0.161" gradientUnits="objectBoundingBox">
      <stop offset="0.26" stop-color="#fff"/>
      <stop offset="1" stop-color="#e9483b"/>
    </linearGradient>
    <linearGradient id="linear-gradient-3" x1="0.5" y1="0.364" x2="0.5" y2="-0.161" xlink:href="#linear-gradient-2"/>
  </defs>
  <g id="Recurso_3" data-name="Recurso 3" style="isolation: isolate">
    <g id="Capa_2" data-name="Capa 2">
      <g id="Capa_1" data-name="Capa 1">
        <rect id="Rectángulo_53" data-name="Rectángulo 53" width="46.127" height="46.127" transform="translate(285.823 32.422)" fill="#e9483b"/>
        <rect id="Rectángulo_54" data-name="Rectángulo 54" width="46.127" height="46.127" transform="translate(285.823 32.422)" fill="url(#linear-gradient)" style="mix-blend-mode: multiply;isolation: isolate"/>
        <rect id="Rectángulo_55" data-name="Rectángulo 55" width="46.127" height="46.127" transform="translate(17.516 32.422)" fill="#fab431"/>
        <rect id="Rectángulo_56" data-name="Rectángulo 56" width="46.127" height="46.127" transform="translate(17.516 32.475)" fill="url(#linear-gradient-2)" style="mix-blend-mode: multiply;isolation: isolate"/>
        <g id="Grupo_33" data-name="Grupo 33" transform="translate(351.973)">
          <path id="Trazado_72" data-name="Trazado 72" d="M149.72,0a2.161,2.161,0,0,1,2.167,2.167V8.38a2.178,2.178,0,0,1-2.167,2.167h-6.213A2.161,2.161,0,0,1,141.34,8.38V2.193A2.161,2.161,0,0,1,143.507.026h6.213Zm-6.109,8.3h5.978v-6h-5.978V8.275Z" transform="translate(-124.346)" fill="#90cde7"/>
          <path id="Trazado_73" data-name="Trazado 73" d="M158.571,1.227l-3.185,4.046,3.185,4.1V10.6h-3.89l-1.7-2.271c-.5.757-1.2,1.54-1.7,2.271H147.45V9.372l3.159-4.1L147.45,1.227V0h3.864l1.671,2.3,1.7-2.3h3.89Z" transform="translate(-114.506)" fill="#90cde7"/>
          <path id="Trazado_74" data-name="Trazado 74" d="M146.395,5.606H134.83V3.1h11.564Z" transform="translate(-134.83 4.993)" fill="#90cde7"/>
        </g>
        <rect id="Rectángulo_57" data-name="Rectángulo 57" width="31.691" height="63.748" transform="translate(145.196 64.088) rotate(-90)" fill="#f1862a"/>
        <g id="Grupo_34" data-name="Grupo 34" transform="translate(0.679 111.964)">
          <path id="Trazado_75" data-name="Trazado 75" d="M.26,52.262l.809-.914a4.164,4.164,0,0,0,2.924,1.305c1.384,0,2.219-.679,2.219-1.723,0-1.07-.757-1.41-1.749-1.853L2.949,48.4A2.972,2.972,0,0,1,.808,45.683,3.043,3.043,0,0,1,4.124,42.89,4.366,4.366,0,0,1,7.23,44.2l-.7.861a3.415,3.415,0,0,0-2.4-.992c-1.175,0-1.958.6-1.958,1.54,0,1.018.914,1.41,1.749,1.749l1.514.653A2.92,2.92,0,0,1,7.6,50.826c0,1.671-1.384,3-3.6,3A5.1,5.1,0,0,1,.286,52.262Z" transform="translate(-0.26 -42.89)" fill="#053146"/>
          <path id="Trazado_76" data-name="Trazado 76" d="M7.54,42.96h6.082v1.149H8.871v3.315h3.994v1.149H8.871V52.41h4.908v1.149H7.54V42.986Z" transform="translate(11.464 -42.777)" fill="#053146"/>
          <path id="Trazado_77" data-name="Trazado 77" d="M14.49,42.96h3.315c2.141,0,3.707.783,3.707,2.976s-1.54,3.133-3.707,3.133H15.847v4.464H14.49Zm3.133,5.012c1.645,0,2.558-.653,2.558-2.036s-.914-1.88-2.558-1.88H15.847v3.916Zm-.078.731,1.044-.7L21.8,53.533H20.285Z" transform="translate(22.657 -42.777)" fill="#053146"/>
          <path id="Trazado_78" data-name="Trazado 78" d="M21.47,48.372c0-3.394,2.036-5.482,4.856-5.482A4.087,4.087,0,0,1,29.38,44.2l-.731.888a3,3,0,0,0-2.271-.992c-2.114,0-3.5,1.645-3.5,4.255s1.253,4.307,3.5,4.307a2.881,2.881,0,0,0,1.906-.627V49.286H26.038V48.163H29.51V52.6a4.508,4.508,0,0,1-3.263,1.227c-2.793,0-4.777-2.036-4.777-5.456Z" transform="translate(33.899 -42.89)" fill="#053146"/>
          <path id="Trazado_79" data-name="Trazado 79" d="M29.21,42.96h1.331V53.533H29.21Z" transform="translate(46.364 -42.777)" fill="#053146"/>
          <path id="Trazado_80" data-name="Trazado 80" d="M34.29,48.32c0-3.394,1.853-5.43,4.516-5.43s4.516,2.062,4.516,5.43-1.853,5.508-4.516,5.508S34.29,51.687,34.29,48.32Zm7.649,0c0-2.637-1.253-4.255-3.133-4.255s-3.133,1.618-3.133,4.255,1.253,4.333,3.133,4.333S41.939,50.956,41.939,48.32Z" transform="translate(54.545 -42.89)" fill="#053146"/>
          <path id="Trazado_81" data-name="Trazado 81" d="M47.25,42.976h3.028c2.376,0,3.968.809,3.968,3.106s-1.592,3.263-3.89,3.263H48.607v4.177H47.276V42.95Zm2.924,5.273c1.853,0,2.741-.679,2.741-2.167s-.94-2.01-2.793-2.01H48.607v4.2h1.566Z" transform="translate(75.417 -42.793)" fill="#053146"/>
          <path id="Trazado_82" data-name="Trazado 82" d="M57.16,42.96h1.514l3.576,10.573h-1.41l-1.853-5.9c-.392-1.175-.7-2.349-1.07-3.55h-.052c-.313,1.227-.653,2.376-1.044,3.55l-1.853,5.9H53.61L57.186,42.96Zm-1.7,6.265h4.856V50.3H55.463Z" transform="translate(85.66 -42.777)" fill="#053146"/>
          <path id="Trazado_83" data-name="Trazado 83" d="M60.9,52.262l.809-.914a4.164,4.164,0,0,0,2.924,1.305c1.384,0,2.219-.679,2.219-1.723,0-1.07-.757-1.41-1.775-1.853L63.563,48.4a2.972,2.972,0,0,1-2.141-2.715,3.043,3.043,0,0,1,3.315-2.793A4.366,4.366,0,0,1,67.844,44.2l-.7.861a3.415,3.415,0,0,0-2.4-.992c-1.175,0-1.958.6-1.958,1.54,0,1.018.914,1.41,1.749,1.749l1.514.653a2.92,2.92,0,0,1,2.167,2.819c0,1.671-1.384,3-3.6,3A5.1,5.1,0,0,1,60.9,52.262Z" transform="translate(97.4 -42.89)" fill="#053146"/>
          <path id="Trazado_84" data-name="Trazado 84" d="M70.865,44.109H67.68V42.96h7.727v1.149H72.222v9.424H70.891V44.109Z" transform="translate(108.32 -42.777)" fill="#053146"/>
          <path id="Trazado_85" data-name="Trazado 85" d="M74.68,48.32c0-3.394,1.853-5.43,4.516-5.43s4.516,2.062,4.516,5.43-1.853,5.508-4.516,5.508S74.68,51.687,74.68,48.32Zm7.649,0c0-2.637-1.253-4.255-3.133-4.255s-3.133,1.618-3.133,4.255,1.253,4.333,3.133,4.333S82.329,50.956,82.329,48.32Z" transform="translate(119.593 -42.89)" fill="#053146"/>
          <path id="Trazado_86" data-name="Trazado 86" d="M82.71,42.96h3.315c2.141,0,3.707.783,3.707,2.976s-1.54,3.133-3.707,3.133H84.067v4.464H82.736V42.96Zm3.107,5.012c1.645,0,2.558-.653,2.558-2.036s-.914-1.88-2.558-1.88H84.041v3.916Zm-.052.731,1.044-.7,3.211,5.534H88.505Z" transform="translate(132.525 -42.777)" fill="#053146"/>
          <path id="Trazado_87" data-name="Trazado 87" d="M94.56,52.262l.809-.914a4.164,4.164,0,0,0,2.924,1.305c1.384,0,2.219-.679,2.219-1.723,0-1.07-.757-1.41-1.749-1.853L97.249,48.4a2.972,2.972,0,0,1-2.141-2.715,3.043,3.043,0,0,1,3.315-2.793A4.366,4.366,0,0,1,101.53,44.2l-.7.861a3.415,3.415,0,0,0-2.4-.992c-1.175,0-1.958.6-1.958,1.54,0,1.018.914,1.41,1.749,1.749l1.514.653a2.92,2.92,0,0,1,2.167,2.819c0,1.671-1.384,3-3.6,3a5.1,5.1,0,0,1-3.707-1.566Z" transform="translate(151.61 -42.89)" fill="#053146"/>
          <path id="Trazado_88" data-name="Trazado 88" d="M101.84,42.96h6.082v1.149h-4.751v3.315h3.994v1.149h-3.994V52.41h4.908v1.149H101.84V42.986Z" transform="translate(163.334 -42.777)" fill="#053146"/>
          <path id="Trazado_89" data-name="Trazado 89" d="M108.56,48.372c0-3.394,2.036-5.482,4.856-5.482A4.087,4.087,0,0,1,116.47,44.2l-.731.888a3,3,0,0,0-2.271-.992c-2.141,0-3.5,1.645-3.5,4.255s1.253,4.307,3.5,4.307a2.881,2.881,0,0,0,1.906-.627V49.286h-2.245V48.163H116.6V52.6a4.508,4.508,0,0,1-3.263,1.227c-2.793,0-4.777-2.036-4.777-5.456Z" transform="translate(174.157 -42.89)" fill="#053146"/>
          <path id="Trazado_90" data-name="Trazado 90" d="M116.28,49.173V42.96h1.331V49.2c0,2.532,1.07,3.341,2.454,3.341s2.506-.809,2.506-3.341V42.96h1.279v6.213c0,3.394-1.645,4.568-3.785,4.568s-3.785-1.175-3.785-4.568Z" transform="translate(186.59 -42.777)" fill="#053146"/>
          <path id="Trazado_91" data-name="Trazado 91" d="M123.97,42.96h3.315c2.141,0,3.707.783,3.707,2.976s-1.54,3.133-3.707,3.133h-1.958v4.464H124V42.96Zm3.133,5.012c1.645,0,2.558-.653,2.558-2.036s-.914-1.88-2.558-1.88h-1.775v3.916Zm-.078.731,1.044-.7,3.211,5.534h-1.514Z" transform="translate(198.974 -42.777)" fill="#053146"/>
          <path id="Trazado_92" data-name="Trazado 92" d="M134.2,42.96h1.514l3.576,10.573h-1.436L136,47.633c-.365-1.175-.7-2.349-1.044-3.55h-.078c-.313,1.227-.653,2.376-1.044,3.55l-1.853,5.9H130.62L134.2,42.96Zm-1.7,6.265h4.855V50.3H132.5Z" transform="translate(209.684 -42.777)" fill="#053146"/>
        </g>
        <g id="Grupo_35" data-name="Grupo 35" transform="translate(0 14.775)">
          <path id="Trazado_93" data-name="Trazado 93" d="M81.4,29.964H63.644V23.281H17.516V37.534H64.662A16.767,16.767,0,0,1,81.4,54.267V70.322A16.767,16.767,0,0,1,64.662,87.055H16.733A16.7,16.7,0,0,1,0,70.322v-7.57H17.516v6.683H63.644V55.181H16.733A16.7,16.7,0,0,1,0,38.448V22.393A16.7,16.7,0,0,1,16.733,5.66H64.662A16.767,16.767,0,0,1,81.4,22.393v7.57Z" transform="translate(0 -5.66)" fill="#053146"/>
          <path id="Trazado_94" data-name="Trazado 94" d="M116.811,5.71a16.857,16.857,0,0,1,16.838,16.733V43.458a16.857,16.857,0,0,1-16.838,16.733L69.8,60.3c.235,0,.339.235.339.679a.577.577,0,0,1-.339-.1v26.1H52.28V5.71h64.558ZM69.8,42.544h46.127V23.2H69.8Z" transform="translate(84.197 -5.579)" fill="#053146"/>
          <path id="Trazado_95" data-name="Trazado 95" d="M184.175,29.964H166.424V23.281H120.3V37.534h47.146a16.767,16.767,0,0,1,16.733,16.733V70.322a16.767,16.767,0,0,1-16.733,16.733H119.513A16.7,16.7,0,0,1,102.78,70.322v-7.57H120.3v6.683h46.127V55.181H119.513A16.7,16.7,0,0,1,102.78,38.448V22.393A16.7,16.7,0,0,1,119.513,5.66h47.929a16.767,16.767,0,0,1,16.733,16.733v7.57Z" transform="translate(165.527 -5.66)" fill="#053146"/>
        </g>
        <rect id="Rectángulo_58" data-name="Rectángulo 58" width="46.127" height="19.344" transform="translate(153.993 32.422)" fill="url(#linear-gradient-3)" style="mix-blend-mode: multiply;isolation: isolate"/>
      </g>
    </g>
  </g>
</svg>
