<?xml version="1.0" encoding="utf-8"?>
<!-- Generator: Adobe Illustrator 27.5.0, SVG Export Plug-In . SVG Version: 6.00 Build 0)  -->
<svg version="1.1" xmlns="http://www.w3.org/2000/svg" xmlns:xlink="http://www.w3.org/1999/xlink" x="0px" y="0px"
	 viewBox="0 0 450 450" style="enable-background:new 0 0 450 450;" xml:space="preserve">
<g id="Layer_1">
	<rect style="fill:#1A1A1A;" width="450" height="450"/>
</g>
<g id="Layer_2">
	<rect x="24.5" y="25" style="opacity:0.5;fill:#FFFFFF;" width="1" height="400"/>
	<rect x="44.049" y="24.5" style="opacity:0.2;fill:#FFFFFF;" width="1.003" height="401"/>
	<rect x="64.099" y="24.5" style="opacity:0.2;fill:#FFFFFF;" width="1.003" height="401"/>
	<rect x="84.149" y="24.5" style="opacity:0.2;fill:#FFFFFF;" width="1.003" height="401"/>
	<rect x="104.199" y="24.5" style="opacity:0.2;fill:#FFFFFF;" width="1.002" height="401"/>
	<rect x="124.248" y="24.5" style="opacity:0.5;fill:#FFFFFF;" width="1.003" height="401"/>
	<rect x="144.299" y="24.5" style="opacity:0.2;fill:#FFFFFF;" width="1.002" height="401"/>
	<rect x="164.349" y="24.5" style="opacity:0.2;fill:#FFFFFF;" width="1.002" height="401"/>
	<rect x="184.399" y="24.5" style="opacity:0.2;fill:#FFFFFF;" width="1.002" height="401"/>
	<rect x="204.449" y="24.5" style="opacity:0.2;fill:#FFFFFF;" width="1.002" height="401"/>
	<rect x="224.498" y="24.5" style="opacity:0.5;fill:#FFFFFF;" width="1.003" height="401"/>
	<rect x="244.549" y="24.5" style="opacity:0.2;fill:#FFFFFF;" width="1.002" height="401"/>
	<rect x="264.599" y="24.5" style="opacity:0.2;fill:#FFFFFF;" width="1.003" height="401"/>
	<rect x="284.648" y="24.5" style="opacity:0.2;fill:#FFFFFF;" width="1.003" height="401"/>
	<rect x="304.699" y="24.5" style="opacity:0.2;fill:#FFFFFF;" width="1.002" height="401"/>
	<rect x="324.749" y="24.5" style="opacity:0.5;fill:#FFFFFF;" width="1.002" height="401"/>
	<rect x="344.799" y="24.5" style="opacity:0.2;fill:#FFFFFF;" width="1.002" height="401"/>
	<rect x="364.849" y="24.5" style="opacity:0.2;fill:#FFFFFF;" width="1.003" height="401"/>
	<rect x="384.898" y="24.5" style="opacity:0.2;fill:#FFFFFF;" width="1.003" height="401"/>
	<rect x="404.949" y="24.5" style="opacity:0.2;fill:#FFFFFF;" width="1.002" height="401"/>
	<rect x="424.5" y="25" style="opacity:0.5;fill:#FFFFFF;" width="1" height="400"/>
	<rect x="25" y="24.5" style="opacity:0.5;fill:#FFFFFF;" width="400" height="1"/>
	<rect x="24.5" y="44.049" style="opacity:0.2;fill:#FFFFFF;" width="401" height="1.003"/>
	<rect x="24.5" y="64.099" style="opacity:0.2;fill:#FFFFFF;" width="401" height="1.003"/>
	<rect x="24.5" y="84.149" style="opacity:0.2;fill:#FFFFFF;" width="401" height="1.003"/>
	<rect x="24.5" y="104.199" style="opacity:0.2;fill:#FFFFFF;" width="401" height="1.003"/>
	<rect x="24.5" y="124.248" style="opacity:0.5;fill:#FFFFFF;" width="401" height="1.003"/>
	<rect x="24.5" y="144.299" style="opacity:0.2;fill:#FFFFFF;" width="401" height="1.003"/>
	<rect x="24.5" y="164.349" style="opacity:0.2;fill:#FFFFFF;" width="401" height="1.003"/>
	<rect x="24.5" y="184.399" style="opacity:0.2;fill:#FFFFFF;" width="401" height="1.003"/>
	<rect x="24.5" y="204.449" style="opacity:0.2;fill:#FFFFFF;" width="401" height="1.003"/>
	<rect x="24.5" y="224.499" style="opacity:0.5;fill:#FFFFFF;" width="401" height="1.003"/>
	<rect x="24.5" y="244.549" style="opacity:0.2;fill:#FFFFFF;" width="401" height="1.002"/>
	<rect x="24.5" y="264.599" style="opacity:0.2;fill:#FFFFFF;" width="401" height="1.003"/>
	<rect x="24.5" y="284.648" style="opacity:0.2;fill:#FFFFFF;" width="401" height="1.003"/>
	<rect x="24.5" y="304.699" style="opacity:0.2;fill:#FFFFFF;" width="401" height="1.002"/>
	<rect x="24.5" y="324.749" style="opacity:0.5;fill:#FFFFFF;" width="401" height="1.002"/>
	<rect x="24.5" y="344.799" style="opacity:0.2;fill:#FFFFFF;" width="401" height="1.002"/>
	<rect x="24.5" y="364.849" style="opacity:0.2;fill:#FFFFFF;" width="401" height="1.003"/>
	<rect x="24.5" y="384.898" style="opacity:0.2;fill:#FFFFFF;" width="401" height="1.003"/>
	<rect x="24.5" y="404.949" style="opacity:0.2;fill:#FFFFFF;" width="401" height="1.002"/>
	<rect x="25" y="424.5" style="opacity:0.5;fill:#FFFFFF;" width="400" height="1"/>
	<g>
		<rect x="24.5" y="21.5" style="fill:#FFFFFF;" width="1" height="7"/>
		<rect x="21.5" y="24.5" style="fill:#FFFFFF;" width="7" height="1"/>
	</g>
	<g>
		<rect x="424.5" y="21.5" style="fill:#FFFFFF;" width="1" height="7"/>
		<rect x="421.5" y="24.5" style="fill:#FFFFFF;" width="7" height="1"/>
	</g>
	<g>
		<rect x="24.5" y="121.5" style="fill:#FFFFFF;" width="1" height="7"/>
		<rect x="21.5" y="124.5" style="fill:#FFFFFF;" width="7" height="1"/>
	</g>
	<g>
		<rect x="424.5" y="121.5" style="fill:#FFFFFF;" width="1" height="7"/>
		<rect x="421.5" y="124.5" style="fill:#FFFFFF;" width="7" height="1"/>
	</g>
	<g>
		<rect x="24.5" y="221.5" style="fill:#FFFFFF;" width="1" height="7"/>
		<rect x="21.5" y="224.5" style="fill:#FFFFFF;" width="7" height="1"/>
	</g>
	<g>
		<rect x="424.5" y="221.5" style="fill:#FFFFFF;" width="1" height="7"/>
		<rect x="421.5" y="224.5" style="fill:#FFFFFF;" width="7" height="1"/>
	</g>
	<g>
		<rect x="24.5" y="321.5" style="fill:#FFFFFF;" width="1" height="7"/>
		<rect x="21.5" y="324.5" style="fill:#FFFFFF;" width="7" height="1"/>
	</g>
	<g>
		<rect x="424.5" y="321.5" style="fill:#FFFFFF;" width="1" height="7"/>
		<rect x="421.5" y="324.5" style="fill:#FFFFFF;" width="7" height="1"/>
	</g>
	<g>
		<rect x="24.5" y="421.5" style="fill:#FFFFFF;" width="1" height="7"/>
		<rect x="21.5" y="424.5" style="fill:#FFFFFF;" width="7" height="1"/>
	</g>
	<g>
		<rect x="124.5" y="21.5" style="fill:#FFFFFF;" width="1" height="7"/>
		<rect x="121.5" y="24.5" style="fill:#FFFFFF;" width="7" height="1"/>
	</g>
	<g>
		<rect x="124.5" y="121.5" style="fill:#FFFFFF;" width="1" height="7"/>
		<rect x="121.5" y="124.5" style="fill:#FFFFFF;" width="7" height="1"/>
	</g>
	<g>
		<rect x="124.5" y="221.5" style="fill:#FFFFFF;" width="1" height="7"/>
		<rect x="121.5" y="224.5" style="fill:#FFFFFF;" width="7" height="1"/>
	</g>
	<g>
		<rect x="124.5" y="321.5" style="fill:#FFFFFF;" width="1" height="7"/>
		<rect x="121.5" y="324.5" style="fill:#FFFFFF;" width="7" height="1"/>
	</g>
	<g>
		<rect x="124.5" y="421.5" style="fill:#FFFFFF;" width="1" height="7"/>
		<rect x="121.5" y="424.5" style="fill:#FFFFFF;" width="7" height="1"/>
	</g>
	<g>
		<rect x="224.5" y="21.5" style="fill:#FFFFFF;" width="1" height="7"/>
		<rect x="221.5" y="24.5" style="fill:#FFFFFF;" width="7" height="1"/>
	</g>
	<g>
		<rect x="224.5" y="121.5" style="fill:#FFFFFF;" width="1" height="7"/>
		<rect x="221.5" y="124.5" style="fill:#FFFFFF;" width="7" height="1"/>
	</g>
	<g>
		<rect x="224.5" y="221.5" style="fill:#FFFFFF;" width="1" height="7"/>
		<rect x="221.5" y="224.5" style="fill:#FFFFFF;" width="7" height="1"/>
	</g>
	<g>
		<rect x="224.5" y="321.5" style="fill:#FFFFFF;" width="1" height="7"/>
		<rect x="221.5" y="324.5" style="fill:#FFFFFF;" width="7" height="1"/>
	</g>
	<g>
		<rect x="224.5" y="421.5" style="fill:#FFFFFF;" width="1" height="7"/>
		<rect x="221.5" y="424.5" style="fill:#FFFFFF;" width="7" height="1"/>
	</g>
	<g>
		<rect x="324.5" y="21.5" style="fill:#FFFFFF;" width="1" height="7"/>
		<rect x="321.5" y="24.5" style="fill:#FFFFFF;" width="7" height="1"/>
	</g>
	<g>
		<rect x="324.5" y="121.5" style="fill:#FFFFFF;" width="1" height="7"/>
		<rect x="321.5" y="124.5" style="fill:#FFFFFF;" width="7" height="1"/>
	</g>
	<g>
		<rect x="324.5" y="221.5" style="fill:#FFFFFF;" width="1" height="7"/>
		<rect x="321.5" y="224.5" style="fill:#FFFFFF;" width="7" height="1"/>
	</g>
	<g>
		<rect x="324.5" y="321.5" style="fill:#FFFFFF;" width="1" height="7"/>
		<rect x="321.5" y="324.5" style="fill:#FFFFFF;" width="7" height="1"/>
	</g>
	<g>
		<rect x="324.5" y="421.5" style="fill:#FFFFFF;" width="1" height="7"/>
		<rect x="321.5" y="424.5" style="fill:#FFFFFF;" width="7" height="1"/>
	</g>
	<g>
		<rect x="424.5" y="421.5" style="fill:#FFFFFF;" width="1" height="7"/>
		<rect x="421.5" y="424.5" style="fill:#FFFFFF;" width="7" height="1"/>
	</g>
	<rect x="74.5" y="74.5" style="fill:#FFFFFF;" width="1" height="1"/>
	<rect x="174.5" y="74.5" style="fill:#FFFFFF;" width="1" height="1"/>
	<rect x="274.5" y="74.5" style="fill:#FFFFFF;" width="1" height="1"/>
	<rect x="374.5" y="74.5" style="fill:#FFFFFF;" width="1" height="1"/>
	<rect x="74.5" y="174.5" style="fill:#FFFFFF;" width="1" height="1"/>
	<rect x="174.5" y="174.5" style="fill:#FFFFFF;" width="1" height="1"/>
	<rect x="274.5" y="174.5" style="fill:#FFFFFF;" width="1" height="1"/>
	<rect x="374.5" y="174.5" style="fill:#FFFFFF;" width="1" height="1"/>
	<rect x="74.5" y="274.5" style="fill:#FFFFFF;" width="1" height="1"/>
	<rect x="174.5" y="274.5" style="fill:#FFFFFF;" width="1" height="1"/>
	<rect x="274.5" y="274.5" style="fill:#FFFFFF;" width="1" height="1"/>
	<rect x="374.5" y="274.5" style="fill:#FFFFFF;" width="1" height="1"/>
	<rect x="74.5" y="374.5" style="fill:#FFFFFF;" width="1" height="1"/>
	<rect x="174.5" y="374.5" style="fill:#FFFFFF;" width="1" height="1"/>
	<rect x="274.5" y="374.5" style="fill:#FFFFFF;" width="1" height="1"/>
	<rect x="374.5" y="374.5" style="fill:#FFFFFF;" width="1" height="1"/>
</g>
</svg>
