<svg id="Grupo_33" data-name="Grupo 33" xmlns="http://www.w3.org/2000/svg" width="44.065" height="10.599" viewBox="0 0 44.065 10.599">
  <path id="Trazado_72" data-name="Trazado 72" d="M149.72,0a2.161,2.161,0,0,1,2.167,2.167V8.38a2.178,2.178,0,0,1-2.167,2.167h-6.213A2.161,2.161,0,0,1,141.34,8.38V2.193A2.161,2.161,0,0,1,143.507.026h6.213Zm-6.109,8.3h5.978v-6h-5.978V8.275Z" transform="translate(-124.346)" fill="#90cde7"/>
  <path id="Trazado_73" data-name="Trazado 73" d="M158.571,1.227l-3.185,4.046,3.185,4.1V10.6h-3.89l-1.7-2.271c-.5.757-1.2,1.54-1.7,2.271H147.45V9.372l3.159-4.1L147.45,1.227V0h3.864l1.671,2.3,1.7-2.3h3.89Z" transform="translate(-114.506)" fill="#90cde7"/>
  <path id="Trazado_74" data-name="Trazado 74" d="M146.395,5.606H134.83V3.1h11.564Z" transform="translate(-134.83 4.993)" fill="#90cde7"/>
</svg>
