<?xml version="1.0" encoding="utf-8"?>
<!-- Generator: Adobe Illustrator 28.4.1, SVG Export Plug-In . SVG Version: 6.00 Build 0)  -->
<svg version="1.1" id="Layer_1" xmlns="http://www.w3.org/2000/svg" xmlns:xlink="http://www.w3.org/1999/xlink" x="0px" y="0px"
	 viewBox="0 0 60 60" style="enable-background:new 0 0 60 60;" xml:space="preserve">
<style type="text/css">
	.st0{fill:#7BC3E1;}
</style>
<path class="st0" d="M30.7,24.4c12.4,0,21.8-4.8,21.8-11.2S43.1,1.9,30.7,1.9C19.6,1.9,7.5,6.2,7.5,13.1
	C7.5,20.1,19.6,24.4,30.7,24.4z M30.7,5.6c10.6,0,18,4,18,7.5c0,3.5-7.4,7.5-18,7.5s-19.5-4.1-19.5-7.5C11.2,9.7,19.9,5.6,30.7,5.6z
	 M10.7,45.5c-0.1-0.1-0.2-0.2-0.3-0.2c-0.1-0.1-0.2-0.1-0.3-0.2C10,45.1,9.9,45,9.7,45c-0.3-0.1-0.6,0-0.9,0
	c-0.3,0.1-0.6,0.2-0.8,0.5c-0.2,0.2-0.3,0.4-0.4,0.6c-0.1,0.2-0.2,0.5-0.2,0.8c0,0.2,0,0.5,0.2,0.7C7.7,47.8,7.9,48,8,48.2
	c0.2,0.2,0.4,0.3,0.6,0.4c0.2,0.1,0.5,0.2,0.7,0.2c0.2,0,0.5-0.1,0.7-0.2c0.2-0.1,0.4-0.2,0.6-0.4c0.2-0.2,0.3-0.4,0.4-0.6
	c0.1-0.2,0.2-0.5,0.2-0.7s-0.1-0.5-0.2-0.7C11,45.9,10.9,45.7,10.7,45.5z M22.9,53.6c-2.8-0.5-5.5-1.4-8-2.8
	c-0.4-0.2-0.9-0.3-1.4-0.2s-0.9,0.4-1.1,0.9C12,52,11.9,52.5,12.1,53c0.1,0.5,0.4,0.9,0.9,1.1c2.9,1.5,6,2.6,9.2,3.2h0.4
	c0.5,0,1-0.1,1.4-0.4c0.4-0.3,0.6-0.8,0.7-1.3c0-0.5-0.1-1-0.4-1.4C23.8,53.8,23.3,53.6,22.9,53.6L22.9,53.6z M49.5,43.3
	c-0.5,0.2-0.8,0.6-1,1c-0.2,0.5-0.2,1,0,1.4c0.2,0.4,0.2,0.7,0.2,1.1c0,3.5-7.4,7.5-18,7.5H30c-0.5,0-1,0.2-1.3,0.5
	c-0.4,0.4-0.5,0.8-0.5,1.3s0.2,1,0.5,1.3c0.4,0.4,0.8,0.5,1.3,0.5h0.8c12.4,0,21.7-4.8,21.7-11.2c0-0.9-0.2-1.8-0.5-2.6
	c-0.1-0.2-0.2-0.4-0.4-0.6s-0.4-0.3-0.6-0.4c-0.2-0.1-0.5-0.1-0.7-0.1C50,43.1,49.7,43.2,49.5,43.3z"/>
<path class="st0" d="M49.5,20.8c-0.5,0.2-0.8,0.6-1,1c-0.2,0.5-0.2,1,0,1.4c0.2,0.4,0.2,0.7,0.2,1.1c0,3.5-7.4,7.5-18,7.5
	s-19.5-4.1-19.5-7.5c0-0.4,0.1-0.7,0.3-1c0.1-0.2,0.2-0.5,0.2-0.7c0-0.2,0-0.5-0.1-0.7c-0.1-0.2-0.2-0.5-0.4-0.7
	c-0.2-0.2-0.4-0.3-0.6-0.5c-0.2-0.1-0.5-0.2-0.7-0.2c-0.3,0-0.5,0-0.7,0.1c-0.2,0.1-0.5,0.2-0.6,0.4c-0.2,0.2-0.3,0.4-0.4,0.6
	c-0.4,0.8-0.7,1.8-0.7,2.7c0,7,12.1,11.2,23.2,11.2c12.4,0,21.8-4.8,21.8-11.2c0-0.9-0.2-1.8-0.5-2.6c-0.1-0.2-0.2-0.4-0.4-0.6
	s-0.4-0.3-0.6-0.4c-0.2-0.1-0.5-0.1-0.7-0.1C50,20.6,49.7,20.7,49.5,20.8z"/>
<path class="st0" d="M49.5,32c-0.5,0.2-0.8,0.6-1,1c-0.2,0.5-0.2,1,0,1.4c0.2,0.4,0.2,0.7,0.2,1.1c0,3.5-7.4,7.5-18,7.5
	S11.2,39,11.2,35.6c0-0.4,0.1-0.7,0.3-1c0.1-0.2,0.2-0.5,0.2-0.7c0-0.2,0-0.5-0.1-0.7c-0.1-0.2-0.2-0.5-0.4-0.7
	c-0.2-0.2-0.4-0.3-0.6-0.5c-0.2-0.1-0.5-0.2-0.7-0.2c-0.3,0-0.5,0-0.7,0.1C9,32,8.8,32.1,8.6,32.3c-0.2,0.2-0.3,0.4-0.4,0.6
	c-0.4,0.8-0.7,1.8-0.7,2.7c0,7,12.1,11.2,23.2,11.2c12.4,0,21.8-4.8,21.8-11.2c0-0.9-0.2-1.8-0.5-2.6c-0.1-0.2-0.2-0.4-0.4-0.6
	s-0.4-0.3-0.6-0.4c-0.2-0.1-0.5-0.1-0.7-0.1C50,31.9,49.7,31.9,49.5,32z"/>
</svg>
