<?xml version="1.0" encoding="utf-8"?>
<!-- Generator: Adobe Illustrator 28.4.1, SVG Export Plug-In . SVG Version: 6.00 Build 0)  -->
<svg version="1.1" id="Layer_1" xmlns="http://www.w3.org/2000/svg" xmlns:xlink="http://www.w3.org/1999/xlink" x="0px" y="0px"
	 viewBox="0 0 60 60" style="enable-background:new 0 0 60 60;" xml:space="preserve">
<style type="text/css">
	.st0{fill:#7BC3E1;}
</style>
<path class="st0" d="M57.5,27.5c-0.2,0-0.3,0-0.5,0.1c-0.2,0.1-0.3,0.2-0.4,0.3c-0.1,0.1-0.2,0.3-0.3,0.4c-0.1,0.2-0.1,0.3-0.1,0.5
	v5c0,0.7-0.1,1.3-0.4,1.9c-0.3,0.6-0.6,1.2-1.1,1.6c-0.5,0.5-1,0.8-1.6,1.1c-0.6,0.3-1.3,0.4-1.9,0.4H8.7c-1.3,0-2.6-0.5-3.5-1.5
	c-0.9-0.9-1.5-2.2-1.5-3.5v-25c0-1.3,0.5-2.6,1.5-3.5s2.2-1.5,3.5-1.5h42.5c1.3,0,2.6,0.5,3.5,1.5c0.9,0.9,1.5,2.2,1.5,3.5
	c0,0.3,0.1,0.6,0.4,0.9c0.2,0.2,0.6,0.4,0.9,0.4s0.6-0.1,0.9-0.4c0.2-0.2,0.4-0.6,0.4-0.9c0-2-0.8-3.9-2.2-5.3
	c-1.4-1.4-3.3-2.2-5.3-2.2H8.7c-2,0-3.9,0.8-5.3,2.2C2,4.9,1.2,6.8,1.2,8.7v25c0,2,0.8,3.9,2.2,5.3c1.4,1.4,3.3,2.2,5.3,2.2h42.5
	c2,0,3.9-0.8,5.3-2.2c1.4-1.4,2.2-3.3,2.2-5.3v-5c0-0.2,0-0.3-0.1-0.5c-0.1-0.2-0.2-0.3-0.3-0.4c-0.1-0.1-0.3-0.2-0.4-0.3
	C57.8,27.5,57.7,27.5,57.5,27.5z"/>
<path class="st0" d="M57.5,17.5c-0.3,0-0.6,0.1-0.9,0.4c-0.2,0.2-0.4,0.6-0.4,0.9v5c0,0.3,0.1,0.6,0.4,0.9c0.2,0.2,0.6,0.4,0.9,0.4
	s0.6-0.1,0.9-0.4c0.2-0.2,0.4-0.6,0.4-0.9v-5c0-0.2,0-0.3-0.1-0.5c-0.1-0.2-0.2-0.3-0.3-0.4c-0.1-0.1-0.3-0.2-0.4-0.3
	C57.8,17.5,57.7,17.5,57.5,17.5z M56.6,12.9c-0.1,0.1-0.2,0.3-0.3,0.4c-0.1,0.2-0.1,0.3-0.1,0.5s0,0.3,0.1,0.5
	c0.1,0.2,0.2,0.3,0.3,0.4c0.1,0.1,0.3,0.2,0.4,0.3c0.2,0.1,0.3,0.1,0.5,0.1s0.3,0,0.5-0.1c0.2-0.1,0.3-0.2,0.4-0.3l0.2-0.2
	c0-0.1,0.1-0.1,0.1-0.2c0-0.1,0.1-0.1,0.1-0.2c0-0.1,0-0.2,0-0.2c0-0.2-0.1-0.5-0.2-0.7c-0.1-0.2-0.3-0.4-0.6-0.5
	c-0.2-0.1-0.5-0.1-0.7-0.1C57,12.6,56.8,12.7,56.6,12.9z M52.5,56.3h-45c-0.3,0-0.6,0.1-0.9,0.4c-0.2,0.2-0.4,0.6-0.4,0.9
	s0.1,0.6,0.4,0.9c0.2,0.2,0.6,0.4,0.9,0.4h45c0.3,0,0.6-0.1,0.9-0.4c0.2-0.2,0.4-0.6,0.4-0.9s-0.1-0.6-0.4-0.9
	C53.2,56.4,52.8,56.3,52.5,56.3z M40,50c0.3,0,0.6-0.1,0.9-0.4c0.2-0.2,0.4-0.6,0.4-0.9s-0.1-0.6-0.4-0.9c-0.2-0.2-0.6-0.4-0.9-0.4
	H20c-0.3,0-0.6,0.1-0.9,0.4c-0.2,0.2-0.4,0.6-0.4,0.9s0.1,0.6,0.4,0.9c0.2,0.2,0.6,0.4,0.9,0.4H40z M15,33.8c0,0.3,0.1,0.6,0.4,0.9
	c0.2,0.2,0.6,0.4,0.9,0.4h15.2c0.3,0,0.6-0.1,0.8-0.3l7.9-6.3l0.1-0.1l0.1-0.1c0.1-0.1,0.1-0.2,0.2-0.3l6.4-16.2
	c0.1-0.2,0.1-0.3,0.1-0.5c0-0.2,0-0.3-0.1-0.5c-0.1-0.2-0.1-0.3-0.3-0.4c-0.1-0.1-0.3-0.2-0.4-0.3L37,6.3c-0.2-0.1-0.3-0.1-0.5-0.1
	c-0.2,0-0.3,0-0.5,0.1c-0.2,0.1-0.3,0.2-0.4,0.3c-0.1,0.1-0.2,0.3-0.3,0.4l-6.4,16.3c-0.1,0.2-0.1,0.4-0.1,0.5V24l1.2,8.5H16.3
	c-0.3,0-0.6,0.1-0.9,0.4C15.1,33.1,15,33.4,15,33.8z M31.5,25.7l5.3,2.1l-4.5,3.6L31.5,25.7z M37.1,9.1l7,2.8l-5.5,14l-7-2.8
	L37.1,9.1z"/>
</svg>
