<?xml version="1.0" encoding="utf-8"?>
<!-- Generator: Adobe Illustrator 28.4.1, SVG Export Plug-In . SVG Version: 6.00 Build 0)  -->
<svg version="1.1" id="Layer_1" xmlns="http://www.w3.org/2000/svg" xmlns:xlink="http://www.w3.org/1999/xlink" x="0px" y="0px"
	 viewBox="0 0 60 60" style="enable-background:new 0 0 60 60;" xml:space="preserve">
<style type="text/css">
	.st0{fill:#7BC3E1;}
</style>
<path class="st0" d="M5.1,24.9c-0.1-0.1-0.2-0.2-0.3-0.2c-0.1-0.1-0.2-0.1-0.3-0.2c-0.1-0.1-0.2-0.1-0.4-0.1c-0.2-0.1-0.5-0.1-0.7,0
	c-0.1,0-0.2,0.1-0.3,0.1c-0.1,0-0.2,0.1-0.3,0.2l-0.3,0.2c-0.2,0.2-0.3,0.4-0.4,0.6c-0.1,0.2-0.2,0.5-0.2,0.7c0,0.2,0.1,0.5,0.2,0.7
	c0.1,0.2,0.2,0.4,0.4,0.6c0.2,0.2,0.4,0.3,0.6,0.4c0.2,0.1,0.5,0.2,0.7,0.2c0.2,0,0.5-0.1,0.7-0.1c0.2-0.1,0.4-0.2,0.6-0.4
	c0.2-0.2,0.3-0.4,0.4-0.6c0.1-0.2,0.2-0.5,0.2-0.7c0-0.2-0.1-0.5-0.2-0.7C5.4,25.3,5.3,25.1,5.1,24.9z M11.3,24.9
	c0.3,0,0.5-0.1,0.7-0.1l9.4-4c0.2-0.1,0.4-0.2,0.6-0.4c0.2-0.2,0.3-0.4,0.4-0.6c0.1-0.2,0.1-0.5,0.1-0.7c0-0.2-0.1-0.5-0.2-0.7
	c-0.1-0.2-0.2-0.4-0.4-0.6c-0.2-0.2-0.4-0.3-0.6-0.4c-0.2-0.1-0.5-0.1-0.7-0.1c-0.2,0-0.5,0.1-0.7,0.2l-9.4,4
	c-0.4,0.2-0.7,0.5-0.9,0.9c-0.2,0.4-0.3,0.8-0.2,1.3c0.1,0.4,0.3,0.8,0.7,1.1C10.4,24.8,10.8,24.9,11.3,24.9z"/>
<path class="st0" d="M58.1,4.3c0-0.2,0-0.4,0-0.5c0-0.1,0-0.1,0-0.2c0-0.1-0.1-0.3-0.1-0.4V2.9c-0.1-0.1-0.2-0.3-0.3-0.4
	c-0.2-0.1-0.3-0.2-0.5-0.3h-0.2c-0.2-0.2-0.4-0.3-0.7-0.3h-0.2c-0.1,0-0.3,0-0.5,0h-0.2L27.5,13.9c-0.5,0.2-0.8,0.6-1,1
	c-0.2,0.5-0.2,1,0,1.4c0.2,0.5,0.6,0.8,1,1c0.5,0.2,1,0.2,1.4,0l16.9-7.2L16.9,35l-6.3-5.4c-0.2-0.2-0.4-0.3-0.6-0.4
	c-0.2-0.1-0.5-0.1-0.7-0.1c-0.2,0-0.5,0.1-0.7,0.2c-0.2,0.1-0.4,0.3-0.6,0.5c-0.2,0.2-0.3,0.4-0.4,0.6c-0.1,0.2-0.1,0.5-0.1,0.7
	c0,0.2,0.1,0.5,0.2,0.7c0.1,0.2,0.3,0.4,0.5,0.6l6.5,5.6L9.5,53.8c0,0.2,0,0.3,0,0.5c0,0.2,0,0.3,0,0.5v0.1c0,0.1,0.1,0.2,0.1,0.3
	c0,0.1,0.1,0.2,0.1,0.3l0.2,0.2c0.1,0.1,0.2,0.2,0.3,0.3h0.2l0.3,0.1H11l0.3,0.2h0.5l18.4-5.6l8,7c0.2,0.2,0.5,0.4,0.8,0.5
	c0.3,0.1,0.6,0.1,0.9,0c0.3-0.1,0.6-0.2,0.8-0.5c0.2-0.2,0.4-0.5,0.5-0.8L58.1,4.3L58.1,4.3z M23.1,41.8l-7.9,6.8l3.3-10l23.3-20
	L23.1,41.8z M19.4,50l5-4.4l2.5,2.1L19.4,50z M38.6,52.9l-11.5-10l24.4-30.2L38.6,52.9z"/>
</svg>
