<?xml version="1.0" encoding="utf-8"?>
<!-- Generator: Adobe Illustrator 28.4.1, SVG Export Plug-In . SVG Version: 6.00 Build 0)  -->
<svg version="1.1" id="Layer_1" xmlns="http://www.w3.org/2000/svg" xmlns:xlink="http://www.w3.org/1999/xlink" x="0px" y="0px"
	 viewBox="0 0 60 60" style="enable-background:new 0 0 60 60;" xml:space="preserve">
<style type="text/css">
	.st0{fill:#7BC3E1;}
</style>
<path class="st0" d="M25.3,20.9c-0.3-0.2-0.6-0.3-0.9-0.3c-0.3,0-0.7,0.1-0.9,0.3c-0.3,0.2-0.5,0.4-0.7,0.7
	c-0.2,0.3-0.2,0.6-0.2,0.9v15c0,0.3,0.1,0.7,0.2,0.9c0.2,0.3,0.4,0.5,0.7,0.7c0.3,0.2,0.6,0.3,0.9,0.3c0.3,0,0.7-0.1,0.9-0.3
	l13.1-7.5c0.3-0.2,0.5-0.4,0.7-0.7c0.2-0.3,0.3-0.6,0.3-0.9c0-0.3-0.1-0.7-0.3-0.9c-0.2-0.3-0.4-0.5-0.7-0.7L25.3,20.9z M26.2,34.3
	v-8.5l7.5,4.3L26.2,34.3z"/>
<path class="st0" d="M50.6,1.9H9.4c-2,0-3.9,0.8-5.3,2.2S1.9,7.4,1.9,9.4v41.2c0,2,0.8,3.9,2.2,5.3c1.4,1.4,3.3,2.2,5.3,2.2h41.2
	c2,0,3.9-0.8,5.3-2.2c1.4-1.4,2.2-3.3,2.2-5.3v-7.5H5.6V16.9h52.5V9.4c0-2-0.8-3.9-2.2-5.3C54.5,2.7,52.6,1.9,50.6,1.9z M45,46.9
	h9.4v3.8c0,1-0.4,1.9-1.1,2.7c-0.7,0.7-1.7,1.1-2.7,1.1H45V46.9z M31.9,46.9h9.4v7.5h-9.4V46.9z M18.8,46.9h9.4v7.5h-9.4V46.9z
	 M15,46.9v7.5H9.4c-1,0-1.9-0.4-2.7-1.1c-0.7-0.7-1.1-1.7-1.1-2.7v-3.8H15z M15,13.1H5.6V9.4c0-1,0.4-1.9,1.1-2.7s1.7-1.1,2.7-1.1
	H15V13.1z M28.1,13.1h-9.4V5.6h9.4V13.1z M41.2,13.1h-9.4V5.6h9.4V13.1z M54.4,13.1H45V5.6h5.6c1,0,1.9,0.4,2.7,1.1
	c0.7,0.7,1.1,1.7,1.1,2.7V13.1z"/>
<path class="st0" d="M54.4,22.5c0,0.5,0.2,1,0.5,1.3c0.4,0.4,0.8,0.5,1.3,0.5s1-0.2,1.3-0.5c0.4-0.4,0.5-0.8,0.5-1.3s-0.2-1-0.5-1.3
	c-0.4-0.4-0.8-0.5-1.3-0.5s-1,0.2-1.3,0.5C54.6,21.5,54.4,22,54.4,22.5z"/>
<path class="st0" d="M56.2,28.1c-0.5,0-1,0.2-1.3,0.5c-0.4,0.4-0.5,0.8-0.5,1.3v7.5c0,0.5,0.2,1,0.5,1.3c0.4,0.4,0.8,0.5,1.3,0.5
	s1-0.2,1.3-0.5c0.4-0.4,0.5-0.8,0.5-1.3V30c0-0.5-0.2-1-0.5-1.3C57.2,28.3,56.7,28.1,56.2,28.1z"/>
</svg>
